<mxfile host="app.diagrams.net" modified="2022-05-03T14:20:16.186Z" agent="5.0 (Windows NT 10.0; Win64; x64) AppleWebKit/537.36 (KHTML, like Gecko) Chrome/101.0.4951.41 Safari/537.36 Edg/101.0.1210.32" etag="kf8v8YMBbvQYKXd3KF29" version="17.5.0" type="github">
  <diagram id="LH6K80gbI8aFVMVwewlE" name="Page-1">
    <mxGraphModel dx="1038" dy="579" grid="1" gridSize="10" guides="1" tooltips="1" connect="1" arrows="1" fold="1" page="1" pageScale="1" pageWidth="850" pageHeight="1100" math="0" shadow="0">
      <root>
        <mxCell id="0" />
        <mxCell id="1" parent="0" />
        <mxCell id="_u6aRXxbpCAiSyQHCyQ8-3" value="" style="edgeStyle=orthogonalEdgeStyle;rounded=0;orthogonalLoop=1;jettySize=auto;html=1;" edge="1" parent="1" source="_u6aRXxbpCAiSyQHCyQ8-1" target="_u6aRXxbpCAiSyQHCyQ8-2">
          <mxGeometry relative="1" as="geometry" />
        </mxCell>
        <mxCell id="_u6aRXxbpCAiSyQHCyQ8-1" value="start" style="rounded=1;whiteSpace=wrap;html=1;" vertex="1" parent="1">
          <mxGeometry x="80" y="30" width="90" height="20" as="geometry" />
        </mxCell>
        <mxCell id="_u6aRXxbpCAiSyQHCyQ8-5" value="" style="edgeStyle=orthogonalEdgeStyle;rounded=0;orthogonalLoop=1;jettySize=auto;html=1;" edge="1" parent="1" source="_u6aRXxbpCAiSyQHCyQ8-2" target="_u6aRXxbpCAiSyQHCyQ8-4">
          <mxGeometry relative="1" as="geometry" />
        </mxCell>
        <mxCell id="_u6aRXxbpCAiSyQHCyQ8-2" value="get the service pop object and initialize the queue arrays" style="rounded=0;whiteSpace=wrap;html=1;" vertex="1" parent="1">
          <mxGeometry x="65" y="90" width="120" height="60" as="geometry" />
        </mxCell>
        <mxCell id="_u6aRXxbpCAiSyQHCyQ8-7" value="yes" style="edgeStyle=orthogonalEdgeStyle;rounded=0;orthogonalLoop=1;jettySize=auto;html=1;" edge="1" parent="1" source="_u6aRXxbpCAiSyQHCyQ8-4" target="_u6aRXxbpCAiSyQHCyQ8-6">
          <mxGeometry relative="1" as="geometry" />
        </mxCell>
        <mxCell id="_u6aRXxbpCAiSyQHCyQ8-13" value="" style="edgeStyle=orthogonalEdgeStyle;rounded=0;orthogonalLoop=1;jettySize=auto;html=1;" edge="1" parent="1" source="_u6aRXxbpCAiSyQHCyQ8-4" target="_u6aRXxbpCAiSyQHCyQ8-12">
          <mxGeometry relative="1" as="geometry">
            <Array as="points">
              <mxPoint x="230" y="240" />
              <mxPoint x="230" y="70" />
            </Array>
          </mxGeometry>
        </mxCell>
        <mxCell id="_u6aRXxbpCAiSyQHCyQ8-14" value="no" style="edgeLabel;html=1;align=center;verticalAlign=middle;resizable=0;points=[];" vertex="1" connectable="0" parent="_u6aRXxbpCAiSyQHCyQ8-13">
          <mxGeometry x="-0.2944" y="-2" relative="1" as="geometry">
            <mxPoint as="offset" />
          </mxGeometry>
        </mxCell>
        <mxCell id="_u6aRXxbpCAiSyQHCyQ8-4" value="IF pop id is the first id in primary queue&amp;nbsp;" style="rhombus;whiteSpace=wrap;html=1;rounded=0;" vertex="1" parent="1">
          <mxGeometry x="85" y="200" width="80" height="80" as="geometry" />
        </mxCell>
        <mxCell id="_u6aRXxbpCAiSyQHCyQ8-9" value="" style="edgeStyle=orthogonalEdgeStyle;rounded=0;orthogonalLoop=1;jettySize=auto;html=1;" edge="1" parent="1" source="_u6aRXxbpCAiSyQHCyQ8-6" target="_u6aRXxbpCAiSyQHCyQ8-8">
          <mxGeometry relative="1" as="geometry" />
        </mxCell>
        <mxCell id="_u6aRXxbpCAiSyQHCyQ8-6" value="get the queue slot and pop ids in queue" style="whiteSpace=wrap;html=1;rounded=0;" vertex="1" parent="1">
          <mxGeometry x="65" y="310" width="120" height="60" as="geometry" />
        </mxCell>
        <mxCell id="_u6aRXxbpCAiSyQHCyQ8-11" value="" style="edgeStyle=orthogonalEdgeStyle;rounded=0;orthogonalLoop=1;jettySize=auto;html=1;" edge="1" parent="1" source="_u6aRXxbpCAiSyQHCyQ8-8" target="_u6aRXxbpCAiSyQHCyQ8-10">
          <mxGeometry relative="1" as="geometry" />
        </mxCell>
        <mxCell id="_u6aRXxbpCAiSyQHCyQ8-8" value="IF Q pop count &amp;gt;Q slot" style="rhombus;whiteSpace=wrap;html=1;rounded=0;" vertex="1" parent="1">
          <mxGeometry x="85" y="400" width="80" height="80" as="geometry" />
        </mxCell>
        <mxCell id="_u6aRXxbpCAiSyQHCyQ8-10" value="add the over queue points into queue points" style="whiteSpace=wrap;html=1;rounded=0;" vertex="1" parent="1">
          <mxGeometry x="65" y="530" width="120" height="60" as="geometry" />
        </mxCell>
        <mxCell id="_u6aRXxbpCAiSyQHCyQ8-18" value="" style="edgeStyle=orthogonalEdgeStyle;rounded=0;orthogonalLoop=1;jettySize=auto;html=1;" edge="1" parent="1" source="_u6aRXxbpCAiSyQHCyQ8-12" target="_u6aRXxbpCAiSyQHCyQ8-15">
          <mxGeometry relative="1" as="geometry" />
        </mxCell>
        <mxCell id="_u6aRXxbpCAiSyQHCyQ8-12" value="ELSE IF pop id is the first id in 2 queue&amp;nbsp;" style="rhombus;whiteSpace=wrap;html=1;rounded=0;" vertex="1" parent="1">
          <mxGeometry x="245" y="30" width="80" height="80" as="geometry" />
        </mxCell>
        <mxCell id="_u6aRXxbpCAiSyQHCyQ8-19" value="" style="edgeStyle=orthogonalEdgeStyle;rounded=0;orthogonalLoop=1;jettySize=auto;html=1;" edge="1" parent="1" source="_u6aRXxbpCAiSyQHCyQ8-15" target="_u6aRXxbpCAiSyQHCyQ8-16">
          <mxGeometry relative="1" as="geometry" />
        </mxCell>
        <mxCell id="_u6aRXxbpCAiSyQHCyQ8-15" value="get the queue slot and pop ids in queue" style="whiteSpace=wrap;html=1;rounded=0;" vertex="1" parent="1">
          <mxGeometry x="250" y="160" width="120" height="60" as="geometry" />
        </mxCell>
        <mxCell id="_u6aRXxbpCAiSyQHCyQ8-20" value="" style="edgeStyle=orthogonalEdgeStyle;rounded=0;orthogonalLoop=1;jettySize=auto;html=1;" edge="1" parent="1" source="_u6aRXxbpCAiSyQHCyQ8-16" target="_u6aRXxbpCAiSyQHCyQ8-17">
          <mxGeometry relative="1" as="geometry" />
        </mxCell>
        <mxCell id="_u6aRXxbpCAiSyQHCyQ8-16" value="IF Q pop count &amp;gt;Q slot" style="rhombus;whiteSpace=wrap;html=1;rounded=0;" vertex="1" parent="1">
          <mxGeometry x="270" y="250" width="80" height="80" as="geometry" />
        </mxCell>
        <mxCell id="_u6aRXxbpCAiSyQHCyQ8-22" value="" style="edgeStyle=orthogonalEdgeStyle;rounded=0;orthogonalLoop=1;jettySize=auto;html=1;" edge="1" parent="1" source="_u6aRXxbpCAiSyQHCyQ8-17" target="_u6aRXxbpCAiSyQHCyQ8-21">
          <mxGeometry relative="1" as="geometry" />
        </mxCell>
        <mxCell id="_u6aRXxbpCAiSyQHCyQ8-17" value="add the over queue points into queue points" style="whiteSpace=wrap;html=1;rounded=0;" vertex="1" parent="1">
          <mxGeometry x="250" y="380" width="120" height="60" as="geometry" />
        </mxCell>
        <mxCell id="_u6aRXxbpCAiSyQHCyQ8-24" value="" style="edgeStyle=orthogonalEdgeStyle;rounded=0;orthogonalLoop=1;jettySize=auto;html=1;" edge="1" parent="1" source="_u6aRXxbpCAiSyQHCyQ8-21" target="_u6aRXxbpCAiSyQHCyQ8-23">
          <mxGeometry relative="1" as="geometry">
            <Array as="points">
              <mxPoint x="390" y="530" />
              <mxPoint x="390" y="90" />
            </Array>
          </mxGeometry>
        </mxCell>
        <mxCell id="_u6aRXxbpCAiSyQHCyQ8-21" value="get the index of the agent id&amp;nbsp; and get the next slot point" style="whiteSpace=wrap;html=1;rounded=0;" vertex="1" parent="1">
          <mxGeometry x="250" y="500" width="120" height="60" as="geometry" />
        </mxCell>
        <mxCell id="_u6aRXxbpCAiSyQHCyQ8-26" value="" style="edgeStyle=orthogonalEdgeStyle;rounded=0;orthogonalLoop=1;jettySize=auto;html=1;" edge="1" parent="1" source="_u6aRXxbpCAiSyQHCyQ8-23" target="_u6aRXxbpCAiSyQHCyQ8-25">
          <mxGeometry relative="1" as="geometry" />
        </mxCell>
        <mxCell id="_u6aRXxbpCAiSyQHCyQ8-23" value="IF id in queue" style="rhombus;whiteSpace=wrap;html=1;rounded=0;" vertex="1" parent="1">
          <mxGeometry x="430" y="50" width="80" height="80" as="geometry" />
        </mxCell>
        <mxCell id="_u6aRXxbpCAiSyQHCyQ8-28" value="" style="edgeStyle=orthogonalEdgeStyle;rounded=0;orthogonalLoop=1;jettySize=auto;html=1;" edge="1" parent="1" source="_u6aRXxbpCAiSyQHCyQ8-25" target="_u6aRXxbpCAiSyQHCyQ8-27">
          <mxGeometry relative="1" as="geometry" />
        </mxCell>
        <mxCell id="_u6aRXxbpCAiSyQHCyQ8-25" value="set agent speed" style="rounded=1;whiteSpace=wrap;html=1;fillColor=#ffcc99;strokeColor=#36393d;" vertex="1" parent="1">
          <mxGeometry x="410" y="160" width="120" height="60" as="geometry" />
        </mxCell>
        <mxCell id="_u6aRXxbpCAiSyQHCyQ8-30" value="" style="edgeStyle=orthogonalEdgeStyle;rounded=0;orthogonalLoop=1;jettySize=auto;html=1;" edge="1" parent="1" source="_u6aRXxbpCAiSyQHCyQ8-27" target="_u6aRXxbpCAiSyQHCyQ8-29">
          <mxGeometry relative="1" as="geometry" />
        </mxCell>
        <mxCell id="_u6aRXxbpCAiSyQHCyQ8-27" value="set the animation moving" style="rounded=0;whiteSpace=wrap;html=1;" vertex="1" parent="1">
          <mxGeometry x="410" y="260" width="120" height="60" as="geometry" />
        </mxCell>
        <mxCell id="_u6aRXxbpCAiSyQHCyQ8-32" value="" style="edgeStyle=orthogonalEdgeStyle;rounded=0;orthogonalLoop=1;jettySize=auto;html=1;" edge="1" parent="1" source="_u6aRXxbpCAiSyQHCyQ8-29" target="_u6aRXxbpCAiSyQHCyQ8-31">
          <mxGeometry relative="1" as="geometry" />
        </mxCell>
        <mxCell id="_u6aRXxbpCAiSyQHCyQ8-29" value="set the target as exit point" style="whiteSpace=wrap;html=1;rounded=0;" vertex="1" parent="1">
          <mxGeometry x="410" y="360" width="120" height="60" as="geometry" />
        </mxCell>
        <mxCell id="_u6aRXxbpCAiSyQHCyQ8-34" value="" style="edgeStyle=orthogonalEdgeStyle;rounded=0;orthogonalLoop=1;jettySize=auto;html=1;" edge="1" parent="1" source="_u6aRXxbpCAiSyQHCyQ8-31" target="_u6aRXxbpCAiSyQHCyQ8-33">
          <mxGeometry relative="1" as="geometry">
            <Array as="points">
              <mxPoint x="550" y="490" />
              <mxPoint x="550" y="90" />
            </Array>
          </mxGeometry>
        </mxCell>
        <mxCell id="_u6aRXxbpCAiSyQHCyQ8-31" value="remove the id into queue array" style="whiteSpace=wrap;html=1;rounded=0;" vertex="1" parent="1">
          <mxGeometry x="410" y="460" width="120" height="60" as="geometry" />
        </mxCell>
        <mxCell id="_u6aRXxbpCAiSyQHCyQ8-36" value="" style="edgeStyle=orthogonalEdgeStyle;rounded=0;orthogonalLoop=1;jettySize=auto;html=1;" edge="1" parent="1" source="_u6aRXxbpCAiSyQHCyQ8-33" target="_u6aRXxbpCAiSyQHCyQ8-35">
          <mxGeometry relative="1" as="geometry" />
        </mxCell>
        <mxCell id="_u6aRXxbpCAiSyQHCyQ8-33" value="FOR queue pop" style="rhombus;whiteSpace=wrap;html=1;rounded=0;" vertex="1" parent="1">
          <mxGeometry x="590" y="50" width="80" height="80" as="geometry" />
        </mxCell>
        <mxCell id="_u6aRXxbpCAiSyQHCyQ8-40" value="" style="edgeStyle=orthogonalEdgeStyle;rounded=0;orthogonalLoop=1;jettySize=auto;html=1;" edge="1" parent="1" source="_u6aRXxbpCAiSyQHCyQ8-35" target="_u6aRXxbpCAiSyQHCyQ8-39">
          <mxGeometry relative="1" as="geometry" />
        </mxCell>
        <mxCell id="_u6aRXxbpCAiSyQHCyQ8-35" value="set the food queue assinged and set target queue points" style="whiteSpace=wrap;html=1;rounded=0;" vertex="1" parent="1">
          <mxGeometry x="570" y="170" width="120" height="60" as="geometry" />
        </mxCell>
        <mxCell id="_u6aRXxbpCAiSyQHCyQ8-44" value="" style="edgeStyle=orthogonalEdgeStyle;rounded=0;orthogonalLoop=1;jettySize=auto;html=1;" edge="1" parent="1" source="_u6aRXxbpCAiSyQHCyQ8-39" target="_u6aRXxbpCAiSyQHCyQ8-43">
          <mxGeometry relative="1" as="geometry" />
        </mxCell>
        <mxCell id="_u6aRXxbpCAiSyQHCyQ8-39" value="set agent speed" style="rounded=1;whiteSpace=wrap;html=1;fillColor=#ffcc99;strokeColor=#36393d;" vertex="1" parent="1">
          <mxGeometry x="570" y="270" width="120" height="60" as="geometry" />
        </mxCell>
        <mxCell id="_u6aRXxbpCAiSyQHCyQ8-45" style="edgeStyle=orthogonalEdgeStyle;rounded=0;orthogonalLoop=1;jettySize=auto;html=1;entryX=1;entryY=0.5;entryDx=0;entryDy=0;" edge="1" parent="1" source="_u6aRXxbpCAiSyQHCyQ8-43" target="_u6aRXxbpCAiSyQHCyQ8-33">
          <mxGeometry relative="1" as="geometry">
            <Array as="points">
              <mxPoint x="720" y="390" />
              <mxPoint x="720" y="90" />
            </Array>
          </mxGeometry>
        </mxCell>
        <mxCell id="_u6aRXxbpCAiSyQHCyQ8-48" value="next pop" style="edgeLabel;html=1;align=center;verticalAlign=middle;resizable=0;points=[];" vertex="1" connectable="0" parent="_u6aRXxbpCAiSyQHCyQ8-45">
          <mxGeometry x="-0.6474" y="-3" relative="1" as="geometry">
            <mxPoint as="offset" />
          </mxGeometry>
        </mxCell>
        <mxCell id="_u6aRXxbpCAiSyQHCyQ8-47" value="" style="edgeStyle=orthogonalEdgeStyle;rounded=0;orthogonalLoop=1;jettySize=auto;html=1;" edge="1" parent="1" source="_u6aRXxbpCAiSyQHCyQ8-43" target="_u6aRXxbpCAiSyQHCyQ8-46">
          <mxGeometry relative="1" as="geometry" />
        </mxCell>
        <mxCell id="_u6aRXxbpCAiSyQHCyQ8-43" value="set the animation moving" style="rounded=0;whiteSpace=wrap;html=1;" vertex="1" parent="1">
          <mxGeometry x="570" y="360" width="120" height="60" as="geometry" />
        </mxCell>
        <mxCell id="_u6aRXxbpCAiSyQHCyQ8-46" value="end" style="ellipse;whiteSpace=wrap;html=1;rounded=0;" vertex="1" parent="1">
          <mxGeometry x="570" y="470" width="120" height="60" as="geometry" />
        </mxCell>
      </root>
    </mxGraphModel>
  </diagram>
</mxfile>
